<mxfile host="app.diagrams.net" modified="2023-11-03T10:41:07.165Z" agent="Mozilla/5.0 (Windows NT 10.0; Win64; x64) AppleWebKit/537.36 (KHTML, like Gecko) Chrome/118.0.0.0 Safari/537.36" etag="kJHW_jhSJ47UKQDswOoM" version="22.0.8" type="device">
  <diagram name="페이지-1" id="sJjn9Qm2kOJ7mu-ewziT">
    <mxGraphModel dx="860" dy="690" grid="1" gridSize="10" guides="1" tooltips="1" connect="1" arrows="1" fold="1" page="1" pageScale="1" pageWidth="827" pageHeight="1169" math="0" shadow="0">
      <root>
        <mxCell id="0" />
        <mxCell id="1" parent="0" />
        <mxCell id="ndof9jQfCxj2UQ2Pljk2-1" value="게시글 등록" style="ellipse;whiteSpace=wrap;html=1;" vertex="1" parent="1">
          <mxGeometry x="210" y="50" width="120" height="80" as="geometry" />
        </mxCell>
        <mxCell id="ndof9jQfCxj2UQ2Pljk2-2" value="게시글 전체목록 조회&amp;nbsp;" style="ellipse;whiteSpace=wrap;html=1;" vertex="1" parent="1">
          <mxGeometry x="210" y="150" width="120" height="80" as="geometry" />
        </mxCell>
        <mxCell id="ndof9jQfCxj2UQ2Pljk2-3" value="선택한 게시글 조회" style="ellipse;whiteSpace=wrap;html=1;" vertex="1" parent="1">
          <mxGeometry x="210" y="350" width="120" height="80" as="geometry" />
        </mxCell>
        <mxCell id="ndof9jQfCxj2UQ2Pljk2-4" value="선택한 게시글 수정" style="ellipse;whiteSpace=wrap;html=1;" vertex="1" parent="1">
          <mxGeometry x="210" y="450" width="120" height="80" as="geometry" />
        </mxCell>
        <mxCell id="ndof9jQfCxj2UQ2Pljk2-5" value="선택한 게시글 삭제" style="ellipse;whiteSpace=wrap;html=1;" vertex="1" parent="1">
          <mxGeometry x="210" y="560" width="120" height="80" as="geometry" />
        </mxCell>
        <mxCell id="ndof9jQfCxj2UQ2Pljk2-6" value="Actor" style="shape=umlActor;verticalLabelPosition=bottom;verticalAlign=top;html=1;outlineConnect=0;" vertex="1" parent="1">
          <mxGeometry x="70" y="220" width="40" height="70" as="geometry" />
        </mxCell>
        <mxCell id="ndof9jQfCxj2UQ2Pljk2-11" value="데이터베이스" style="rounded=0;whiteSpace=wrap;html=1;" vertex="1" parent="1">
          <mxGeometry x="440" y="260" width="120" height="60" as="geometry" />
        </mxCell>
        <mxCell id="ndof9jQfCxj2UQ2Pljk2-23" value="" style="endArrow=none;html=1;rounded=0;entryX=0;entryY=0.5;entryDx=0;entryDy=0;" edge="1" parent="1" target="ndof9jQfCxj2UQ2Pljk2-1">
          <mxGeometry width="50" height="50" relative="1" as="geometry">
            <mxPoint x="90" y="220" as="sourcePoint" />
            <mxPoint x="140" y="170" as="targetPoint" />
          </mxGeometry>
        </mxCell>
        <mxCell id="ndof9jQfCxj2UQ2Pljk2-24" value="" style="endArrow=none;html=1;rounded=0;entryX=0;entryY=0.5;entryDx=0;entryDy=0;exitX=1;exitY=0.3333333333333333;exitDx=0;exitDy=0;exitPerimeter=0;" edge="1" parent="1" source="ndof9jQfCxj2UQ2Pljk2-6" target="ndof9jQfCxj2UQ2Pljk2-2">
          <mxGeometry width="50" height="50" relative="1" as="geometry">
            <mxPoint x="250" y="380" as="sourcePoint" />
            <mxPoint x="300" y="330" as="targetPoint" />
          </mxGeometry>
        </mxCell>
        <mxCell id="ndof9jQfCxj2UQ2Pljk2-25" value="" style="endArrow=none;html=1;rounded=0;exitX=0;exitY=0.5;exitDx=0;exitDy=0;" edge="1" parent="1" source="ndof9jQfCxj2UQ2Pljk2-5">
          <mxGeometry width="50" height="50" relative="1" as="geometry">
            <mxPoint x="20" y="340" as="sourcePoint" />
            <mxPoint x="70" y="290" as="targetPoint" />
          </mxGeometry>
        </mxCell>
        <mxCell id="ndof9jQfCxj2UQ2Pljk2-26" value="" style="endArrow=none;html=1;rounded=0;entryX=1;entryY=0.3333333333333333;entryDx=0;entryDy=0;entryPerimeter=0;exitX=0;exitY=0.5;exitDx=0;exitDy=0;" edge="1" parent="1" source="ndof9jQfCxj2UQ2Pljk2-3" target="ndof9jQfCxj2UQ2Pljk2-6">
          <mxGeometry width="50" height="50" relative="1" as="geometry">
            <mxPoint x="250" y="380" as="sourcePoint" />
            <mxPoint x="300" y="330" as="targetPoint" />
          </mxGeometry>
        </mxCell>
        <mxCell id="ndof9jQfCxj2UQ2Pljk2-27" value="" style="endArrow=none;html=1;rounded=0;entryX=1;entryY=1;entryDx=0;entryDy=0;entryPerimeter=0;exitX=0.017;exitY=0.4;exitDx=0;exitDy=0;exitPerimeter=0;" edge="1" parent="1" source="ndof9jQfCxj2UQ2Pljk2-4" target="ndof9jQfCxj2UQ2Pljk2-6">
          <mxGeometry width="50" height="50" relative="1" as="geometry">
            <mxPoint x="250" y="380" as="sourcePoint" />
            <mxPoint x="300" y="330" as="targetPoint" />
          </mxGeometry>
        </mxCell>
        <mxCell id="ndof9jQfCxj2UQ2Pljk2-28" value="" style="endArrow=classic;html=1;rounded=0;entryX=0.5;entryY=0;entryDx=0;entryDy=0;exitX=1;exitY=0.5;exitDx=0;exitDy=0;" edge="1" parent="1" source="ndof9jQfCxj2UQ2Pljk2-1" target="ndof9jQfCxj2UQ2Pljk2-11">
          <mxGeometry width="50" height="50" relative="1" as="geometry">
            <mxPoint x="250" y="380" as="sourcePoint" />
            <mxPoint x="300" y="330" as="targetPoint" />
          </mxGeometry>
        </mxCell>
        <mxCell id="ndof9jQfCxj2UQ2Pljk2-29" value="" style="endArrow=classic;html=1;rounded=0;entryX=0;entryY=0;entryDx=0;entryDy=0;exitX=1;exitY=0.5;exitDx=0;exitDy=0;" edge="1" parent="1" source="ndof9jQfCxj2UQ2Pljk2-2" target="ndof9jQfCxj2UQ2Pljk2-11">
          <mxGeometry width="50" height="50" relative="1" as="geometry">
            <mxPoint x="250" y="380" as="sourcePoint" />
            <mxPoint x="300" y="330" as="targetPoint" />
          </mxGeometry>
        </mxCell>
        <mxCell id="ndof9jQfCxj2UQ2Pljk2-30" value="" style="endArrow=classic;html=1;rounded=0;exitX=1;exitY=0.5;exitDx=0;exitDy=0;" edge="1" parent="1" source="ndof9jQfCxj2UQ2Pljk2-3">
          <mxGeometry width="50" height="50" relative="1" as="geometry">
            <mxPoint x="390" y="370" as="sourcePoint" />
            <mxPoint x="440" y="320" as="targetPoint" />
          </mxGeometry>
        </mxCell>
        <mxCell id="ndof9jQfCxj2UQ2Pljk2-31" value="" style="endArrow=classic;html=1;rounded=0;entryX=0.25;entryY=1;entryDx=0;entryDy=0;exitX=1;exitY=0.5;exitDx=0;exitDy=0;" edge="1" parent="1" source="ndof9jQfCxj2UQ2Pljk2-4" target="ndof9jQfCxj2UQ2Pljk2-11">
          <mxGeometry width="50" height="50" relative="1" as="geometry">
            <mxPoint x="250" y="380" as="sourcePoint" />
            <mxPoint x="300" y="330" as="targetPoint" />
          </mxGeometry>
        </mxCell>
        <mxCell id="ndof9jQfCxj2UQ2Pljk2-32" value="" style="endArrow=classic;html=1;rounded=0;entryX=0.75;entryY=1;entryDx=0;entryDy=0;exitX=1;exitY=0.5;exitDx=0;exitDy=0;" edge="1" parent="1" source="ndof9jQfCxj2UQ2Pljk2-5" target="ndof9jQfCxj2UQ2Pljk2-11">
          <mxGeometry width="50" height="50" relative="1" as="geometry">
            <mxPoint x="250" y="380" as="sourcePoint" />
            <mxPoint x="300" y="330" as="targetPoint" />
          </mxGeometry>
        </mxCell>
        <mxCell id="ndof9jQfCxj2UQ2Pljk2-33" value="&amp;lt;extend&amp;gt;" style="text;html=1;strokeColor=none;fillColor=none;align=center;verticalAlign=middle;whiteSpace=wrap;rounded=0;" vertex="1" parent="1">
          <mxGeometry x="411" y="160" width="60" height="30" as="geometry" />
        </mxCell>
        <mxCell id="ndof9jQfCxj2UQ2Pljk2-34" value="&amp;lt;extend&amp;gt;" style="text;html=1;strokeColor=none;fillColor=none;align=center;verticalAlign=middle;whiteSpace=wrap;rounded=0;" vertex="1" parent="1">
          <mxGeometry x="354" y="220" width="60" height="30" as="geometry" />
        </mxCell>
        <mxCell id="ndof9jQfCxj2UQ2Pljk2-35" value="&amp;lt;extend&amp;gt;" style="text;html=1;strokeColor=none;fillColor=none;align=center;verticalAlign=middle;whiteSpace=wrap;rounded=0;" vertex="1" parent="1">
          <mxGeometry x="414" y="430" width="60" height="30" as="geometry" />
        </mxCell>
        <mxCell id="ndof9jQfCxj2UQ2Pljk2-41" value="&amp;lt;extend&amp;gt;" style="text;html=1;strokeColor=none;fillColor=none;align=center;verticalAlign=middle;whiteSpace=wrap;rounded=0;" vertex="1" parent="1">
          <mxGeometry x="340" y="420" width="60" height="30" as="geometry" />
        </mxCell>
        <mxCell id="ndof9jQfCxj2UQ2Pljk2-46" value="&amp;lt;extend&amp;gt;" style="text;html=1;strokeColor=none;fillColor=none;align=center;verticalAlign=middle;whiteSpace=wrap;rounded=0;" vertex="1" parent="1">
          <mxGeometry x="320" y="340" width="60" height="30" as="geometry" />
        </mxCell>
      </root>
    </mxGraphModel>
  </diagram>
</mxfile>
